<svg width="41" height="41" viewBox="0 0 41 41" fill="none" xmlns="http://www.w3.org/2000/svg">
<g filter="url(#filter0_d_3_4)">
<path d="M12.9318 32.3182C12.0303 32.3182 11.2045 32.0985 10.4545 31.6591C9.70455 31.2121 9.10606 30.6136 8.6591 29.8636C8.2197 29.1136 8 28.2879 8 27.3864C8 26.4773 8.2197 25.6477 8.6591 24.8977C9.10606 24.1477 9.70455 23.5492 10.4545 23.1023C11.2045 22.6553 12.0303 22.4318 12.9318 22.4318H15.5682V17.8636H12.9318C12.0303 17.8636 11.2045 17.6439 10.4545 17.2045C9.70455 16.7576 9.10606 16.1629 8.6591 15.4205C8.2197 14.6705 8 13.8409 8 12.9318C8 12.0227 8.2197 11.197 8.6591 10.4545C9.10606 9.70455 9.70455 9.10985 10.4545 8.67046C11.2045 8.22349 12.0303 8 12.9318 8C13.8409 8 14.6705 8.22349 15.4205 8.67046C16.1705 9.10985 16.7689 9.70455 17.2159 10.4545C17.6629 11.197 17.8864 12.0227 17.8864 12.9318V15.5455H22.4545V12.9318C22.4545 12.0227 22.6742 11.197 23.1136 10.4545C23.5606 9.70455 24.1553 9.10985 24.8977 8.67046C25.6477 8.22349 26.4773 8 27.3864 8C28.2955 8 29.1212 8.22349 29.8636 8.67046C30.6136 9.10985 31.2083 9.70455 31.6477 10.4545C32.0947 11.197 32.3182 12.0227 32.3182 12.9318C32.3182 13.8409 32.0947 14.6705 31.6477 15.4205C31.2083 16.1629 30.6136 16.7576 29.8636 17.2045C29.1212 17.6439 28.2955 17.8636 27.3864 17.8636H24.7727V22.4318H27.3864C28.2955 22.4318 29.1212 22.6553 29.8636 23.1023C30.6136 23.5492 31.2083 24.1477 31.6477 24.8977C32.0947 25.6477 32.3182 26.4773 32.3182 27.3864C32.3182 28.2879 32.0947 29.1136 31.6477 29.8636C31.2083 30.6136 30.6136 31.2121 29.8636 31.6591C29.1212 32.0985 28.2955 32.3182 27.3864 32.3182C26.4773 32.3182 25.6477 32.0985 24.8977 31.6591C24.1553 31.2121 23.5606 30.6136 23.1136 29.8636C22.6742 29.1136 22.4545 28.2879 22.4545 27.3864V24.75H17.8864V27.3864C17.8864 28.2879 17.6629 29.1136 17.2159 29.8636C16.7689 30.6136 16.1705 31.2121 15.4205 31.6591C14.6705 32.0985 13.8409 32.3182 12.9318 32.3182ZM12.9318 30C13.4167 30 13.8561 29.8826 14.25 29.6477C14.6515 29.4129 14.9697 29.0985 15.2045 28.7045C15.447 28.303 15.5682 27.8636 15.5682 27.3864V24.75H12.9318C12.4546 24.75 12.0152 24.8712 11.6136 25.1136C11.2197 25.3485 10.9053 25.6667 10.6705 26.0682C10.4356 26.4621 10.3182 26.9015 10.3182 27.3864C10.3182 27.8636 10.4356 28.303 10.6705 28.7045C10.9053 29.0985 11.2197 29.4129 11.6136 29.6477C12.0152 29.8826 12.4546 30 12.9318 30ZM12.9318 15.5455H15.5682V12.9318C15.5682 12.447 15.447 12.0076 15.2045 11.6136C14.9697 11.2197 14.6515 10.9053 14.25 10.6705C13.8561 10.4356 13.4167 10.3182 12.9318 10.3182C12.4546 10.3182 12.0152 10.4356 11.6136 10.6705C11.2197 10.9053 10.9053 11.2197 10.6705 11.6136C10.4356 12.0076 10.3182 12.447 10.3182 12.9318C10.3182 13.4167 10.4356 13.8599 10.6705 14.2614C10.9053 14.6553 11.2197 14.9697 11.6136 15.2045C12.0152 15.4318 12.4546 15.5455 12.9318 15.5455ZM24.7727 15.5455H27.3864C27.8712 15.5455 28.3106 15.4318 28.7045 15.2045C29.0985 14.9697 29.4129 14.6553 29.6477 14.2614C29.8826 13.8599 30 13.4167 30 12.9318C30 12.447 29.8826 12.0076 29.6477 11.6136C29.4129 11.2197 29.0985 10.9053 28.7045 10.6705C28.3106 10.4356 27.8712 10.3182 27.3864 10.3182C26.9015 10.3182 26.4583 10.4356 26.0568 10.6705C25.6629 10.9053 25.3485 11.2197 25.1136 11.6136C24.8864 12.0076 24.7727 12.447 24.7727 12.9318V15.5455ZM27.3864 30C27.8712 30 28.3106 29.8826 28.7045 29.6477C29.0985 29.4129 29.4129 29.0985 29.6477 28.7045C29.8826 28.303 30 27.8636 30 27.3864C30 26.9015 29.8826 26.4621 29.6477 26.0682C29.4129 25.6667 29.0985 25.3485 28.7045 25.1136C28.3106 24.8712 27.8712 24.75 27.3864 24.75H24.7727V27.3864C24.7727 27.8636 24.8864 28.303 25.1136 28.7045C25.3485 29.0985 25.6629 29.4129 26.0568 29.6477C26.4583 29.8826 26.9015 30 27.3864 30ZM17.8864 22.4318H22.4545V17.8636H17.8864V22.4318Z" fill="white"/>
</g>
<defs>
<filter id="filter0_d_3_4" x="0" y="4.76837e-07" width="40.3182" height="40.3182" filterUnits="userSpaceOnUse" color-interpolation-filters="sRGB">
<feFlood flood-opacity="0" result="BackgroundImageFix"/>
<feColorMatrix in="SourceAlpha" type="matrix" values="0 0 0 0 0 0 0 0 0 0 0 0 0 0 0 0 0 0 127 0" result="hardAlpha"/>
<feOffset/>
<feGaussianBlur stdDeviation="4"/>
<feComposite in2="hardAlpha" operator="out"/>
<feColorMatrix type="matrix" values="0 0 0 0 1 0 0 0 0 1 0 0 0 0 1 0 0 0 0.25 0"/>
<feBlend mode="normal" in2="BackgroundImageFix" result="effect1_dropShadow_3_4"/>
<feBlend mode="normal" in="SourceGraphic" in2="effect1_dropShadow_3_4" result="shape"/>
</filter>
</defs>
</svg>
